<svg xmlns="http://www.w3.org/2000/svg" viewBox="0 0 100 100">
<path d="M39.23,6.41 A42,42 0 0 1 60.77,6.41 L56.67,21.87 A26,26 0 0 0 43.33,21.87 Z" fill="#d4713b"/>
<path d="M62.88,12.02 A42,42 0 0 1 81.01,23.67 L69.2,34.47 A26,26 0 0 0 57.98,27.25 Z" fill="#8a8177"/>
<path d="M82.45,25.34 A42,42 0 0 1 91.4,44.94 L75.63,47.63 A26,26 0 0 0 70.09,35.49 Z" fill="#8a8177"/>
<path d="M91.71,47.11 A42,42 0 0 1 88.65,68.44 L73.93,62.18 A26,26 0 0 0 75.82,48.97 Z" fill="#8a8177"/>
<path d="M87.73,70.44 A42,42 0 0 1 73.62,86.73 L64.62,73.5 A26,26 0 0 0 73.36,63.42 Z" fill="#8a8177"/>
<path d="M71.77,87.91 A42,42 0 0 1 51.1,93.99 L50.68,77.99 A26,26 0 0 0 63.48,74.23 Z" fill="#8a8177"/>
<path d="M48.9,93.99 A42,42 0 0 1 28.23,87.91 L36.52,74.23 A26,26 0 0 0 49.32,77.99 Z" fill="#8a8177"/>
<path d="M26.38,86.73 A42,42 0 0 1 12.27,70.44 L26.64,63.42 A26,26 0 0 0 35.38,73.5 Z" fill="#8a8177"/>
<path d="M11.35,68.44 A42,42 0 0 1 8.29,47.11 L24.18,48.97 A26,26 0 0 0 26.07,62.18 Z" fill="#8a8177"/>
<path d="M8.6,44.94 A42,42 0 0 1 17.55,25.34 L29.91,35.49 A26,26 0 0 0 24.37,47.63 Z" fill="#8a8177"/>
<path d="M18.99,23.67 A42,42 0 0 1 37.12,12.02 L42.02,27.25 A26,26 0 0 0 30.8,34.47 Z" fill="#8a8177"/>
</svg>
