<svg xmlns="http://www.w3.org/2000/svg" viewBox="0 0 100 100">
<path d="M33.11,6.55 A42,42 0 0 1 66.89,6.55 L61.82,18.08 A29.4,29.4 0 0 0 38.18,18.08 Z" fill="#d4713b"/>
<path d="M69.53,15.82 A42,42 0 0 1 90.6,42.23 L78.42,45.46 A29.4,29.4 0 0 0 63.67,26.97 Z" fill="#8a8177"/>
<path d="M91.25,45.09 A42,42 0 0 1 83.73,78.02 L73.61,70.52 A29.4,29.4 0 0 0 78.87,47.46 Z" fill="#8a8177"/>
<path d="M81.9,80.32 A42,42 0 0 1 51.47,94.97 L51.03,82.38 A29.4,29.4 0 0 0 72.33,72.12 Z" fill="#8a8177"/>
<path d="M48.53,94.97 A42,42 0 0 1 18.1,80.32 L27.67,72.12 A29.4,29.4 0 0 0 48.97,82.38 Z" fill="#8a8177"/>
<path d="M16.27,78.02 A42,42 0 0 1 8.75,45.09 L21.13,47.46 A29.4,29.4 0 0 0 26.39,70.52 Z" fill="#8a8177"/>
<path d="M9.4,42.23 A42,42 0 0 1 30.47,15.82 L36.33,26.97 A29.4,29.4 0 0 0 21.58,45.46 Z" fill="#8a8177"/>
</svg>
