<svg xmlns="http://www.w3.org/2000/svg" viewBox="0 0 100 100">
<path d="M4.01,76.96 A46,46 0 0 1 8.11,58.99 L25.41,66.84 A27,27 0 0 0 23.01,77.39 Z" fill="currentColor"/>
<path d="M9.02,57.11 A46,46 0 0 1 20.51,42.7 L32.69,57.28 A27,27 0 0 0 25.95,65.74 Z" fill="currentColor"/>
<path d="M22.14,41.39 A46,46 0 0 1 38.75,33.4 L43.4,51.82 A27,27 0 0 0 33.65,56.51 Z" fill="currentColor"/>
<path d="M40.78,27.93 A46,46 0 0 1 59.22,27.93 L55.41,46.55 A27,27 0 0 0 44.59,46.55 Z" fill="#d4713b"/>
<path d="M61.25,33.4 A46,46 0 0 1 77.86,41.39 L66.35,56.51 A27,27 0 0 0 56.6,51.82 Z" fill="currentColor"/>
<path d="M79.49,42.7 A46,46 0 0 1 90.98,57.11 L74.05,65.74 A27,27 0 0 0 67.31,57.28 Z" fill="currentColor"/>
<path d="M91.89,58.99 A46,46 0 0 1 95.99,76.96 L76.99,77.39 A27,27 0 0 0 74.59,66.84 Z" fill="currentColor"/>
</svg>
